name C:\Users\u0101727\Documents\MyRepositories\upper-imu-dc\Results\main_tracking\Case_48\ABD01_linearAccelerations_bodyFrame.mot
datacolumns 4
datarows 70
range 4.56000000 5.25000000
endheader 
time	radius_imu_x	radius_imu_y	radius_imu_z	
          4.56000000	         -2.10584367	          1.02391935	          9.37281323	
          4.57000000	         -2.06940533	          0.93830973	          9.36626493	
          4.58000000	         -2.03185790	          0.85295141	          9.36313139	
          4.59000000	         -1.99488927	          0.76789925	          9.36337414	
          4.60000000	         -1.95997055	          0.68315598	          9.36642941	
          4.61000000	         -1.92833446	          0.59867736	          9.37129563	
          4.62000000	         -1.90093113	          0.51439380	          9.37676111	
          4.63000000	         -1.87831279	          0.43023947	          9.38171731	
          4.64000000	         -1.86052145	          0.34617000	          9.38538366	
          4.65000000	         -1.84710024	          0.26216346	          9.38734032	
          4.66000000	         -1.83721747	          0.17822523	          9.38748882	
          4.67000000	         -1.82978005	          0.09440813	          9.38606456	
          4.68000000	         -1.82349934	          0.01082663	          9.38363962	
          4.69000000	         -1.81696632	         -0.07235873	          9.38102325	
          4.70000000	         -1.80875488	         -0.15498246	          9.37907744	
          4.71000000	         -1.79753925	         -0.23691655	          9.37853049	
          4.72000000	         -1.78220770	         -0.31809244	          9.37985147	
          4.73000000	         -1.76195119	         -0.39849717	          9.38320185	
          4.74000000	         -1.73632795	         -0.47815249	          9.38844347	
          4.75000000	         -1.70530430	         -0.55709318	          9.39515339	
          4.76000000	         -1.66926119	         -0.63535668	          9.40261904	
          4.77000000	         -1.62897003	         -0.71298276	          9.40988369	
          4.78000000	         -1.58556346	         -0.79001088	          9.41594514	
          4.79000000	         -1.54052414	         -0.86647402	          9.42003056	
          4.80000000	         -1.49564003	         -0.94239743	          9.42176102	
          4.81000000	         -1.45284398	         -1.01780111	          9.42118149	
          4.82000000	         -1.41396657	         -1.09270210	          9.41873032	
          4.83000000	         -1.38050135	         -1.16711953	          9.41515734	
          4.84000000	         -1.35343860	         -1.24108229	          9.41138755	
          4.85000000	         -1.33320147	         -1.31463502	          9.40835802	
          4.86000000	         -1.31971617	         -1.38783835	          9.40686681	
          4.87000000	         -1.31257954	         -1.46075969	          9.40746432	
          4.88000000	         -1.31121539	         -1.53345882	          9.41036750	
          4.89000000	         -1.31495729	         -1.60598059	          9.41533577	
          4.90000000	         -1.32307266	         -1.67836018	          9.42151722	
          4.91000000	         -1.33473931	         -1.75063228	          9.42737921	
          4.92000000	         -1.34899876	         -1.82283557	          9.43084399	
          4.93000000	         -1.36473889	         -1.89501195	          9.42964537	
          4.94000000	         -1.38073415	         -1.96720342	          9.42178290	
          4.95000000	         -1.39572315	         -2.03944861	          9.40589315	
          4.96000000	         -1.40849281	         -2.11177918	          9.38143312	
          4.97000000	         -1.41797807	         -2.18421512	          9.34868978	
          4.98000000	         -1.42339786	         -2.25675954	          9.30867728	
          4.99000000	         -1.42438769	         -2.32939477	          9.26296764	
          5.00000000	         -1.42105629	         -2.40208278	          9.21347818	
          5.01000000	         -1.41393292	         -2.47476982	          9.16224254	
          5.02000000	         -1.40384119	         -2.54739270	          9.11120537	
          5.03000000	         -1.39177525	         -2.61988521	          9.06205912	
          5.04000000	         -1.37879364	         -2.69218469	          9.01611681	
          5.05000000	         -1.36588275	         -2.76423729	          8.97422191	
          5.06000000	         -1.35379756	         -2.83599831	          8.93671554	
          5.07000000	         -1.34294481	         -2.90742491	          8.90347614	
          5.08000000	         -1.33334537	         -2.97846184	          8.87402469	
          5.09000000	         -1.32467117	         -3.04902722	          8.84766716	
          5.10000000	         -1.31633695	         -3.11900611	          8.82363935	
          5.11000000	         -1.30762293	         -3.18825445	          8.80122679	
          5.12000000	         -1.29778945	         -3.25661124	          8.77983756	
          5.13000000	         -1.28612990	         -3.32391443	          8.75901922	
          5.14000000	         -1.27195592	         -3.39001525	          8.73843316	
          5.15000000	         -1.25458206	         -3.45478805	          8.71780602	
          5.16000000	         -1.23338552	         -3.51813575	          8.69688698	
          5.17000000	         -1.20796955	         -3.57999173	          8.67544245	
          5.18000000	         -1.17837861	         -3.64031986	          8.65328864	
          5.19000000	         -1.14524462	         -3.69911552	          8.63032571	
          5.20000000	         -1.10977165	         -3.75640522	          8.60657349	
          5.21000000	         -1.07356323	         -3.81224017	          8.58225792	
          5.22000000	         -1.03835195	         -3.86668515	          8.55793377	
          5.23000000	         -1.00570707	         -3.91981119	          8.53453711	
          5.24000000	         -0.97679324	         -3.97169881	          8.51329151	
          5.25000000	         -0.95223134	         -4.02244928	          8.49550308	
